<?xml version="1.0"?>
<svg xmlns="http://www.w3.org/2000/svg" id="Layer_1" data-name="Layer 1" viewBox="0 0 64 64"><title>Dusk Part 2</title><circle cx="31" cy="31" r="28" style="fill:#c2cde7;"/><path d="M7.34,31a4,4,0,0,0-3.95,4.71,28,28,0,0,0,55.21,0A4,4,0,0,0,54.66,31Z" style="fill:#acb7d0;"/><path d="M31,37a22,22,0,0,1,17,8A22,22,0,1,0,14,45,22,22,0,0,1,31,37Z" style="fill:#85cbf8;"/><polygon points="35 25 29 37 35 37 35 25" style="fill:#ed7899;"/><path d="M39.17,44H22.92a1,1,0,0,0,0,2H39.17a1,1,0,0,0,0-2Z" style="fill:#8d6c9f;"/><path d="M31.17,48H24.92a1,1,0,0,0,0,2h6.25a1,1,0,1,0,0-2Z" style="fill:#8d6c9f;"/><path d="M37.17,48H34.92a1,1,0,0,0,0,2h2.25a1,1,0,0,0,0-2Z" style="fill:#8d6c9f;"/><path d="M31,2A29,29,0,1,0,60,31,29,29,0,0,0,31,2Zm0,56A27,27,0,1,1,58,31,27,27,0,0,1,31,58Z" style="fill:#8d6c9f;"/><path d="M30,15v2a1,1,0,0,0,2,0V15a1,1,0,0,0-2,0Z" style="fill:#f9efde;"/><path d="M48,31a1,1,0,0,0-1-1H45a1,1,0,0,0,0,2h2A1,1,0,0,0,48,31Z" style="fill:#f9efde;"/><path d="M35.87,18.95a1,1,0,0,0,1.3-.55l.75-1.85a1,1,0,0,0-1.85-.75l-.75,1.85A1,1,0,0,0,35.87,18.95Z" style="fill:#f9efde;"/><path d="M44.36,35.32a1,1,0,1,0-.75,1.85l1.85.75a1,1,0,1,0,.75-1.85Z" style="fill:#f9efde;"/><path d="M40,20.24a1,1,0,1,0,1.44,1.39l1.39-1.44A1,1,0,1,0,41.4,18.8Z" style="fill:#f9efde;"/><path d="M45.21,23.58l-1.83.81a1,1,0,0,0,.41,1.91,1,1,0,0,0,.41-.09L46,25.41a1,1,0,1,0-.81-1.83Z" style="fill:#f9efde;"/><path d="M18,31a1,1,0,0,0-1-1H15a1,1,0,0,0,0,2h2A1,1,0,0,0,18,31Z" style="fill:#f9efde;"/><path d="M24.63,15.24a1,1,0,0,0-.55,1.3l.75,1.85a1,1,0,0,0,1.85-.75l-.75-1.85A1,1,0,0,0,24.63,15.24Z" style="fill:#f9efde;"/><path d="M16.17,38a1,1,0,0,0,.37-.07l1.85-.75a1,1,0,1,0-.75-1.85l-1.85.75A1,1,0,0,0,16.17,38Z" style="fill:#f9efde;"/><path d="M21.27,21.93A1,1,0,0,0,22,20.24L20.6,18.8a1,1,0,1,0-1.44,1.39l1.39,1.44A1,1,0,0,0,21.27,21.93Z" style="fill:#f9efde;"/><path d="M18.62,24.39l-1.83-.81A1,1,0,1,0,16,25.41l1.83.81a1,1,0,0,0,.41.09,1,1,0,0,0,.41-1.91Z" style="fill:#f9efde;"/><path d="M38.35,11.32a21,21,0,0,1,2.1.92,1,1,0,0,0,.9-1.79,23,23,0,0,0-2.3-1,1,1,0,1,0-.7,1.87Z" style="fill:#8d6c9f;"/><path d="M54,30A23,23,0,0,0,45.51,13.2a1,1,0,1,0-1.27,1.55,20.95,20.95,0,0,1,4.41,27.62,1,1,0,0,1-.74.47,1.06,1.06,0,0,1-.85-.3,22.85,22.85,0,0,0-11.06-6V23a1,1,0,0,0-1.91-.41L28,36.21a22.83,22.83,0,0,0-13.09,6.33,1,1,0,0,1-.85.3,1,1,0,0,1-.75-.47A21,21,0,0,1,32.34,10q.8,0,1.58.16a1,1,0,0,0,.28-2C33.63,8.14,33,8.08,32.47,8a22.82,22.82,0,0,0-17.21,6.19,23,23,0,0,0-3.59,29.21,3,3,0,0,0,4.68.52,21,21,0,0,1,29.33,0,3.05,3.05,0,0,0,2.13.88l.34,0a3,3,0,0,0,2.2-1.37A22.88,22.88,0,0,0,54,30ZM30.3,36,34,27.71v8.51A23.21,23.21,0,0,0,31,36C30.77,36,30.54,36,30.3,36Z" style="fill:#8d6c9f;"/></svg>
